<svg xmlns="http://www.w3.org/2000/svg" viewBox="285 -4 108 110">
  <!-- Dark rounded background -->
  <rect x="285" y="-4" width="108" height="110" rx="22" fill="#030d12"/>

  <!-- Diagonal slash -->
  <polygon
    fill="none" stroke="#fff" stroke-miterlimit="10" stroke-width="4"
    points="347.62 99.48 357.6 99.48 327.2 28.62 317.22 28.62 347.62 99.48"/>

  <!-- Upper bracket -->
  <path fill="#fff" d="M339.75,60.41h1.95c4.11,0,6.69-.08,7.66-.23,2.16-.27,3.95-.9,5.36-1.86,1.39-.95,2.58-2.46,3.55-4.48.98-2.05,1.47-4.13,1.47-6.19,0-1.77-.38-3.5-1.14-5.13-.75-1.62-1.81-3-3.14-4.09-1.34-1.09-2.98-1.91-4.9-2.43-1.39-.37-4.37-.56-8.86-.56h-12.66l-3.36-7.83h16.02c5.29,0,9.64.53,12.93,1.57,3.39,1.08,6.38,3.24,8.88,6.45,2.51,3.22,3.78,7.15,3.78,11.7,0,4.89-1.19,9.14-3.54,12.65-2.37,3.54-5.55,5.94-9.46,7.14-2.1.66-5.54,1.02-10.51,1.1h-.67s-3.36-7.81-3.36-7.81Z"/>
  <path fill="#fff" d="M341.7,26.62h-17.54l1.2,2.79,2.5,5.83.52,1.21h13.32c5.49,0,7.71.29,8.6.53,1.78.48,3.3,1.23,4.53,2.23,1.21.99,2.17,2.25,2.86,3.73.69,1.5,1.04,3.08,1.04,4.71,0,1.91-.46,3.85-1.37,5.76-.89,1.86-1.97,3.24-3.21,4.09-1.28.87-2.92,1.44-4.89,1.69h-.03s-.03,0-.03,0c-.64.1-2.46.21-7.51.21h-3.47l1.2,2.79,2.49,5.81.53,1.23,1.34-.02c5.06-.08,8.6-.45,10.8-1.15,4.12-1.27,7.49-3.8,9.99-7.54,2.46-3.68,3.71-8.12,3.71-13.21,0-4.77-1.34-8.91-3.99-12.31-2.62-3.36-5.77-5.65-9.36-6.78-3.39-1.08-7.85-1.62-13.23-1.62h0Z"/>

  <!-- Lower bracket -->
  <path fill="#fff" d="M333.16,100.48c-5.29,0-9.64-.53-12.93-1.57-3.39-1.08-6.38-3.24-8.87-6.45-2.51-3.22-3.78-7.15-3.78-11.7,0-4.89,1.19-9.14,3.54-12.65,2.37-3.54,5.55-5.94,9.46-7.14,2.11-.66,5.54-1.02,10.51-1.1h.67s3.36,7.81,3.36,7.81h-1.95c-4.11,0-6.69.08-7.66.23-2.16.27-3.95.9-5.36,1.86-1.39.95-2.58,2.46-3.55,4.48-.98,2.05-1.47,4.13-1.47,6.19,0,1.77.38,3.5,1.14,5.13.75,1.62,1.81,3,3.14,4.09,1.34,1.09,2.98,1.91,4.9,2.42,1.39.37,4.37.56,8.86.56h12.66l3.36,7.83h-16.02Z"/>
  <path fill="#fff" d="M332.41,58.85l-1.34.02c-5.06.08-8.6.45-10.8,1.15-4.12,1.27-7.49,3.8-9.99,7.54-2.46,3.68-3.71,8.12-3.71,13.21,0,4.77,1.34,8.91,3.99,12.31,2.62,3.36,5.77,5.65,9.36,6.78,3.39,1.08,7.85,1.62,13.23,1.62h17.54l-1.2-2.79-2.5-5.83-.52-1.21h-13.32c-5.49,0-7.71-.29-8.6-.53-1.78-.48-3.3-1.23-4.53-2.23-1.21-.99-2.17-2.25-2.86-3.73-.69-1.5-1.04-3.08-1.04-4.71,0-1.91.46-3.85,1.37-5.76.89-1.86,1.97-3.24,3.21-4.09,1.28-.87,2.92-1.44,4.89-1.69h.03s.03,0,.03,0c.64-.1,2.46-.21,7.51-.21h3.47l-1.2-2.79-2.49-5.81-.53-1.23h0Z"/>

  <!-- Top dot circle -->
  <path fill="#fff" d="M336.38,0c-5.8,0-10.5,4.7-10.5,10.5s4.7,10.5,10.5,10.5,10.5-4.7,10.5-10.5S342.18,0,336.38,0Zm0,14c-1.93,0-3.5-1.57-3.5-3.5s1.57-3.5,3.5-3.5,3.5,1.57,3.5,3.5-1.57,3.5-3.5,3.5Z"/>
</svg>
