<?xml version="1.0" encoding="UTF-8"?>
<svg id="katman_2" data-name="katman 2" xmlns="http://www.w3.org/2000/svg" viewBox="0 0 666.14 101.48">
  <defs>
    <style>
      .cls-1 {
        fill: none;
        stroke: #fff;
        stroke-miterlimit: 10;
        stroke-width: 4px;
      }

      .cls-2 {
        fill: #fff;
        stroke-width: 0px;
      }
    </style>
  </defs>
  <g>
    <path class="cls-2" d="M0,28.68h7.37l14.67,51.76,20.59-51.76h1.49l20.35,51.76,14.92-51.76h7.32l-20.64,71.83h-1.33l-21.31-54.35-21.73,54.35h-1.34L0,28.68Z"/>
    <path class="cls-2" d="M130.9,28.68h41.16v7.03h-33.98v22.51h33.69v7.03h-33.69v28.22h33.69v7.03h-40.87V28.68Z"/>
    <path class="cls-2" d="M215.46,28.68h14.16c5.7,0,10.08.68,13.13,2.03,3.06,1.35,5.48,3.43,7.25,6.23,1.77,2.8,2.66,5.91,2.66,9.33,0,3.19-.78,6.1-2.33,8.72-1.55,2.62-3.84,4.75-6.85,6.37,3.73,1.27,6.6,2.76,8.62,4.47,2.01,1.71,3.58,3.78,4.7,6.2,1.12,2.43,1.68,5.05,1.68,7.89,0,5.76-2.11,10.64-6.32,14.62-4.22,3.99-9.87,5.98-16.97,5.98h-19.73V28.68ZM222.49,35.71v23h4.11c4.99,0,8.66-.46,11.01-1.39,2.35-.93,4.21-2.39,5.58-4.39,1.37-2,2.05-4.22,2.05-6.67,0-3.29-1.15-5.87-3.45-7.74-2.3-1.87-5.96-2.81-10.99-2.81h-8.32ZM222.49,65.94v27.54h8.9c5.25,0,9.1-.51,11.54-1.54s4.41-2.63,5.89-4.81c1.48-2.18,2.22-4.54,2.22-7.08,0-3.19-1.04-5.97-3.13-8.35-2.09-2.38-4.95-4-8.6-4.88-2.45-.59-6.7-.88-12.77-.88h-4.06Z"/>
    <path class="cls-2" d="M420.5,100.51V28.68h1.56l47.8,55.06V28.68h7.08v71.83h-1.61l-47.41-54.39v54.39h-7.42Z"/>
    <path class="cls-2" d="M525.28,28.68h41.16v7.03h-33.98v22.51h33.69v7.03h-33.69v28.22h33.69v7.03h-40.87V28.68Z"/>
    <path class="cls-2" d="M609.69,100.51V28.68h1.56l47.8,55.06V28.68h7.08v71.83h-1.61l-47.41-54.39v54.39h-7.42Z"/>
  </g>
  <g>
    <polygon class="cls-1" points="347.62 99.48 357.6 99.48 327.2 28.62 317.22 28.62 347.62 99.48 347.62 99.48"/>
    <g>
      <path class="cls-2" d="M339.75,60.41h1.95c4.11,0,6.69-.08,7.66-.23,2.16-.27,3.95-.9,5.36-1.86,1.39-.95,2.58-2.46,3.55-4.48.98-2.05,1.47-4.13,1.47-6.19,0-1.77-.38-3.5-1.14-5.13-.75-1.62-1.81-3-3.14-4.09-1.34-1.09-2.98-1.91-4.9-2.43-1.39-.37-4.37-.56-8.86-.56h-12.66l-3.36-7.83h16.02c5.29,0,9.64.53,12.93,1.57,3.39,1.08,6.38,3.24,8.88,6.45,2.51,3.22,3.78,7.15,3.78,11.7,0,4.89-1.19,9.14-3.54,12.65-2.37,3.54-5.55,5.94-9.46,7.14-2.1.66-5.54,1.02-10.51,1.1h-.67s-3.36-7.81-3.36-7.81Z"/>
      <path class="cls-2" d="M341.7,28.62c5.21,0,9.42.51,12.63,1.53,3.21,1.02,6.01,3.05,8.39,6.11,2.38,3.05,3.57,6.75,3.57,11.08,0,4.71-1.12,8.74-3.37,12.1-2.25,3.36-5.22,5.61-8.92,6.74-2,.63-5.41.98-10.23,1.05l-2.49-5.81h.43c4.18,0,6.78-.08,7.81-.24,2.3-.29,4.22-.96,5.77-2.02,1.55-1.06,2.84-2.68,3.89-4.88,1.04-2.19,1.57-4.4,1.57-6.62,0-1.93-.41-3.78-1.23-5.55-.82-1.77-1.96-3.25-3.41-4.44-1.45-1.19-3.21-2.06-5.27-2.62-1.48-.4-4.52-.59-9.12-.59h-12l-2.5-5.83h14.5M341.7,26.62h-17.54l1.2,2.79,2.5,5.83.52,1.21h13.32c5.49,0,7.71.29,8.6.53,1.78.48,3.3,1.23,4.53,2.23,1.21.99,2.17,2.25,2.86,3.73.69,1.5,1.04,3.08,1.04,4.71,0,1.91-.46,3.85-1.37,5.76-.89,1.86-1.97,3.24-3.21,4.09-1.28.87-2.92,1.44-4.89,1.69h-.03s-.03,0-.03,0c-.64.1-2.46.21-7.51.21h-3.47l1.2,2.79,2.49,5.81.53,1.23,1.34-.02c5.06-.08,8.6-.45,10.8-1.15,4.12-1.27,7.49-3.8,9.99-7.54,2.46-3.68,3.71-8.12,3.71-13.21,0-4.77-1.34-8.91-3.99-12.31-2.62-3.36-5.77-5.65-9.36-6.78-3.39-1.08-7.85-1.62-13.23-1.62h0Z"/>
    </g>
    <g>
      <path class="cls-2" d="M333.16,100.48c-5.29,0-9.64-.53-12.93-1.57-3.39-1.08-6.38-3.24-8.87-6.45-2.51-3.22-3.78-7.15-3.78-11.7,0-4.89,1.19-9.14,3.54-12.65,2.37-3.54,5.55-5.94,9.46-7.14,2.11-.66,5.54-1.02,10.51-1.1h.67s3.36,7.81,3.36,7.81h-1.95c-4.11,0-6.69.08-7.66.23-2.16.27-3.95.9-5.36,1.86-1.39.95-2.58,2.46-3.55,4.48-.98,2.05-1.47,4.13-1.47,6.19,0,1.77.38,3.5,1.14,5.13.75,1.62,1.81,3,3.14,4.09,1.34,1.09,2.98,1.91,4.9,2.42,1.39.37,4.37.56,8.86.56h12.66l3.36,7.83h-16.02Z"/>
      <path class="cls-2" d="M331.1,60.87l2.49,5.81h-.43c-4.18,0-6.78.08-7.81.24-2.3.29-4.22.96-5.77,2.02-1.55,1.06-2.84,2.68-3.89,4.88-1.04,2.19-1.57,4.4-1.57,6.62,0,1.93.41,3.78,1.23,5.55.82,1.77,1.96,3.25,3.41,4.44,1.45,1.19,3.21,2.06,5.27,2.62,1.48.4,4.52.59,9.12.59h12l2.5,5.83h-14.5c-5.21,0-9.42-.51-12.63-1.53-3.21-1.02-6.01-3.05-8.39-6.11s-3.57-6.75-3.57-11.08c0-4.71,1.12-8.74,3.37-12.1,2.25-3.36,5.22-5.61,8.92-6.74,2-.63,5.41-.98,10.23-1.05M332.41,58.85l-1.34.02c-5.06.08-8.6.45-10.8,1.15-4.12,1.27-7.49,3.8-9.99,7.54-2.46,3.68-3.71,8.12-3.71,13.21,0,4.77,1.34,8.91,3.99,12.31,2.62,3.36,5.77,5.65,9.36,6.78,3.39,1.08,7.85,1.62,13.23,1.62h17.54l-1.2-2.79-2.5-5.83-.52-1.21h-13.32c-5.49,0-7.71-.29-8.6-.53-1.78-.48-3.3-1.23-4.53-2.23-1.21-.99-2.17-2.25-2.86-3.73-.69-1.5-1.04-3.08-1.04-4.71,0-1.91.46-3.85,1.37-5.76.89-1.86,1.97-3.24,3.21-4.09,1.28-.87,2.92-1.44,4.89-1.69h.03s.03,0,.03,0c.64-.1,2.46-.21,7.51-.21h3.47l-1.2-2.79-2.49-5.81-.53-1.23h0Z"/>
    </g>
    <path class="cls-2" d="M336.38,7c1.93,0,3.5,1.57,3.5,3.5s-1.57,3.5-3.5,3.5-3.5-1.57-3.5-3.5,1.57-3.5,3.5-3.5M336.38,0c-5.8,0-10.5,4.7-10.5,10.5s4.7,10.5,10.5,10.5,10.5-4.7,10.5-10.5-4.7-10.5-10.5-10.5h0Z"/>
  </g>
</svg>
